<svg width="36" height="13" viewBox="0 0 36 13" fill="none" xmlns="http://www.w3.org/2000/svg">
<path d="M9.45312 12H7.10938L2.54688 4.51562V12H0.203125V0.625H2.54688L7.11719 8.125V0.625H9.45312V12ZM15.2422 12.1562C14.0026 12.1562 12.9922 11.776 12.2109 11.0156C11.4349 10.2552 11.0469 9.24219 11.0469 7.97656V7.75781C11.0469 6.90885 11.2109 6.15104 11.5391 5.48438C11.8672 4.8125 12.3307 4.29688 12.9297 3.9375C13.5339 3.57292 14.2214 3.39062 14.9922 3.39062C16.1484 3.39062 17.0573 3.75521 17.7188 4.48438C18.3854 5.21354 18.7188 6.2474 18.7188 7.58594V8.50781H13.3359C13.4089 9.0599 13.6276 9.5026 13.9922 9.83594C14.362 10.1693 14.8281 10.3359 15.3906 10.3359C16.2604 10.3359 16.9401 10.0208 17.4297 9.39062L18.5391 10.6328C18.2005 11.112 17.7422 11.487 17.1641 11.7578C16.5859 12.0234 15.9453 12.1562 15.2422 12.1562ZM14.9844 5.21875C14.5365 5.21875 14.1719 5.36979 13.8906 5.67188C13.6146 5.97396 13.4375 6.40625 13.3594 6.96875H16.5V6.78906C16.4896 6.28906 16.3542 5.90365 16.0938 5.63281C15.8333 5.35677 15.4635 5.21875 14.9844 5.21875ZM23.8984 12.1562C22.6589 12.1562 21.6484 11.776 20.8672 11.0156C20.0911 10.2552 19.7031 9.24219 19.7031 7.97656V7.75781C19.7031 6.90885 19.8672 6.15104 20.1953 5.48438C20.5234 4.8125 20.987 4.29688 21.5859 3.9375C22.1901 3.57292 22.8776 3.39062 23.6484 3.39062C24.8047 3.39062 25.7135 3.75521 26.375 4.48438C27.0417 5.21354 27.375 6.2474 27.375 7.58594V8.50781H21.9922C22.0651 9.0599 22.2839 9.5026 22.6484 9.83594C23.0182 10.1693 23.4844 10.3359 24.0469 10.3359C24.9167 10.3359 25.5964 10.0208 26.0859 9.39062L27.1953 10.6328C26.8568 11.112 26.3984 11.487 25.8203 11.7578C25.2422 12.0234 24.6016 12.1562 23.8984 12.1562ZM23.6406 5.21875C23.1927 5.21875 22.8281 5.36979 22.5469 5.67188C22.2708 5.97396 22.0938 6.40625 22.0156 6.96875H25.1562V6.78906C25.1458 6.28906 25.0104 5.90365 24.75 5.63281C24.4896 5.35677 24.1198 5.21875 23.6406 5.21875ZM28.3125 7.71094C28.3125 6.39323 28.6068 5.34375 29.1953 4.5625C29.7891 3.78125 30.599 3.39062 31.625 3.39062C32.4479 3.39062 33.1276 3.69792 33.6641 4.3125V0H35.9297V12H33.8906L33.7812 11.1016C33.2188 11.8047 32.4948 12.1562 31.6094 12.1562C30.6146 12.1562 29.8151 11.7656 29.2109 10.9844C28.612 10.1979 28.3125 9.10677 28.3125 7.71094ZM30.5703 7.875C30.5703 8.66667 30.7083 9.27344 30.9844 9.69531C31.2604 10.1172 31.6615 10.3281 32.1875 10.3281C32.8854 10.3281 33.3776 10.0339 33.6641 9.44531V6.10938C33.3828 5.52083 32.8958 5.22656 32.2031 5.22656C31.1146 5.22656 30.5703 6.10938 30.5703 7.875Z" fill="black"/>
</svg>
