<svg width="36" height="13" viewBox="0 0 36 13" fill="none" xmlns="http://www.w3.org/2000/svg">
<path d="M9.35938 12H7.85156L2.125 3.23438V12H0.617188V0.625H2.125L7.86719 9.42969V0.625H9.35938V12ZM15.3047 12.1562C14.1589 12.1562 13.2266 11.7812 12.5078 11.0312C11.7891 10.276 11.4297 9.26823 11.4297 8.00781V7.74219C11.4297 6.90365 11.5885 6.15625 11.9062 5.5C12.2292 4.83854 12.6771 4.32292 13.25 3.95312C13.8281 3.57812 14.4531 3.39062 15.125 3.39062C16.224 3.39062 17.0781 3.7526 17.6875 4.47656C18.2969 5.20052 18.6016 6.23698 18.6016 7.58594V8.1875H12.875C12.8958 9.02083 13.138 9.69531 13.6016 10.2109C14.0703 10.7214 14.6641 10.9766 15.3828 10.9766C15.8932 10.9766 16.3255 10.8724 16.6797 10.6641C17.0339 10.4557 17.3438 10.1797 17.6094 9.83594L18.4922 10.5234C17.7839 11.612 16.7214 12.1562 15.3047 12.1562ZM15.125 4.57812C14.5417 4.57812 14.0521 4.79167 13.6562 5.21875C13.2604 5.64062 13.0156 6.23438 12.9219 7H17.1562V6.89062C17.1146 6.15625 16.9167 5.58854 16.5625 5.1875C16.2083 4.78125 15.7292 4.57812 15.125 4.57812ZM23.7891 12.1562C22.6432 12.1562 21.7109 11.7812 20.9922 11.0312C20.2734 10.276 19.9141 9.26823 19.9141 8.00781V7.74219C19.9141 6.90365 20.0729 6.15625 20.3906 5.5C20.7135 4.83854 21.1615 4.32292 21.7344 3.95312C22.3125 3.57812 22.9375 3.39062 23.6094 3.39062C24.7083 3.39062 25.5625 3.7526 26.1719 4.47656C26.7812 5.20052 27.0859 6.23698 27.0859 7.58594V8.1875H21.3594C21.3802 9.02083 21.6224 9.69531 22.0859 10.2109C22.5547 10.7214 23.1484 10.9766 23.8672 10.9766C24.3776 10.9766 24.8099 10.8724 25.1641 10.6641C25.5182 10.4557 25.8281 10.1797 26.0938 9.83594L26.9766 10.5234C26.2682 11.612 25.2057 12.1562 23.7891 12.1562ZM23.6094 4.57812C23.026 4.57812 22.5365 4.79167 22.1406 5.21875C21.7448 5.64062 21.5 6.23438 21.4062 7H25.6406V6.89062C25.599 6.15625 25.401 5.58854 25.0469 5.1875C24.6927 4.78125 24.2135 4.57812 23.6094 4.57812ZM28.4141 7.70312C28.4141 6.40625 28.7214 5.36458 29.3359 4.57812C29.9505 3.78646 30.7552 3.39062 31.75 3.39062C32.7396 3.39062 33.5234 3.72917 34.1016 4.40625V0H35.5469V12H34.2188L34.1484 11.0938C33.5703 11.8021 32.7656 12.1562 31.7344 12.1562C30.7552 12.1562 29.9557 11.7552 29.3359 10.9531C28.7214 10.151 28.4141 9.10417 28.4141 7.8125V7.70312ZM29.8594 7.86719C29.8594 8.82552 30.0573 9.57552 30.4531 10.1172C30.849 10.6589 31.3958 10.9297 32.0938 10.9297C33.0104 10.9297 33.6797 10.5182 34.1016 9.69531V5.8125C33.6693 5.01562 33.0052 4.61719 32.1094 4.61719C31.401 4.61719 30.849 4.89062 30.4531 5.4375C30.0573 5.98438 29.8594 6.79427 29.8594 7.86719Z" fill="black" fill-opacity="0.5"/>
</svg>
