<svg width="37" height="14" viewBox="0 0 37 14" fill="none" xmlns="http://www.w3.org/2000/svg">
<path d="M9.94531 7.57031C9.94531 8.6901 9.7474 9.67188 9.35156 10.5156C8.95573 11.3594 8.38802 12.0104 7.64844 12.4688C6.91406 12.9271 6.07031 13.1562 5.11719 13.1562C4.17448 13.1562 3.33333 12.9297 2.59375 12.4766C1.85417 12.0234 1.28125 11.3776 0.875 10.5391C0.46875 9.69531 0.263021 8.72656 0.257812 7.63281V7.07031C0.257812 5.95052 0.458333 4.96615 0.859375 4.11719C1.26562 3.26302 1.83594 2.60938 2.57031 2.15625C3.3099 1.69792 4.15365 1.46875 5.10156 1.46875C6.04948 1.46875 6.89062 1.69792 7.625 2.15625C8.36458 2.60938 8.9349 3.26302 9.33594 4.11719C9.74219 4.96615 9.94531 5.94792 9.94531 7.0625V7.57031ZM7.57031 7.05469C7.57031 5.86198 7.35677 4.95573 6.92969 4.33594C6.5026 3.71615 5.89323 3.40625 5.10156 3.40625C4.3151 3.40625 3.70833 3.71354 3.28125 4.32812C2.85417 4.9375 2.63802 5.83333 2.63281 7.01562V7.57031C2.63281 8.73177 2.84635 9.63281 3.27344 10.2734C3.70052 10.9141 4.3151 11.2344 5.11719 11.2344C5.90365 11.2344 6.50781 10.9271 6.92969 10.3125C7.35156 9.69271 7.5651 8.79167 7.57031 7.60938V7.05469ZM12.1172 13V6.20312H10.8594V4.54688H12.1172V3.82812C12.1172 2.88021 12.388 2.14583 12.9297 1.625C13.4766 1.09896 14.2396 0.835938 15.2188 0.835938C15.5312 0.835938 15.9141 0.888021 16.3672 0.992188L16.3438 2.74219C16.1562 2.69531 15.9271 2.67188 15.6562 2.67188C14.8073 2.67188 14.3828 3.07031 14.3828 3.86719V4.54688H16.0625V6.20312H14.3828V13H12.1172ZM17.8516 13V6.20312H16.5938V4.54688H17.8516V3.82812C17.8516 2.88021 18.1224 2.14583 18.6641 1.625C19.2109 1.09896 19.974 0.835938 20.9531 0.835938C21.2656 0.835938 21.6484 0.888021 22.1016 0.992188L22.0781 2.74219C21.8906 2.69531 21.6615 2.67188 21.3906 2.67188C20.5417 2.67188 20.1172 3.07031 20.1172 3.86719V4.54688H21.7969V6.20312H20.1172V13H17.8516ZM26.6719 13.1562C25.4323 13.1562 24.4219 12.776 23.6406 12.0156C22.8646 11.2552 22.4766 10.2422 22.4766 8.97656V8.75781C22.4766 7.90885 22.6406 7.15104 22.9688 6.48438C23.2969 5.8125 23.7604 5.29688 24.3594 4.9375C24.9635 4.57292 25.651 4.39062 26.4219 4.39062C27.5781 4.39062 28.487 4.75521 29.1484 5.48438C29.8151 6.21354 30.1484 7.2474 30.1484 8.58594V9.50781H24.7656C24.8385 10.0599 25.0573 10.5026 25.4219 10.8359C25.7917 11.1693 26.2578 11.3359 26.8203 11.3359C27.6901 11.3359 28.3698 11.0208 28.8594 10.3906L29.9688 11.6328C29.6302 12.112 29.1719 12.487 28.5938 12.7578C28.0156 13.0234 27.375 13.1562 26.6719 13.1562ZM26.4141 6.21875C25.9661 6.21875 25.6016 6.36979 25.3203 6.67188C25.0443 6.97396 24.8672 7.40625 24.7891 7.96875H27.9297V7.78906C27.9193 7.28906 27.7839 6.90365 27.5234 6.63281C27.263 6.35677 26.8932 6.21875 26.4141 6.21875ZM36.1875 6.66406C35.8802 6.6224 35.6094 6.60156 35.375 6.60156C34.5208 6.60156 33.9609 6.89062 33.6953 7.46875V13H31.4375V4.54688H33.5703L33.6328 5.55469C34.0859 4.77865 34.7135 4.39062 35.5156 4.39062C35.7656 4.39062 36 4.42448 36.2188 4.49219L36.1875 6.66406Z" fill="black"/>
</svg>
