<svg width="35" height="14" viewBox="0 0 35 14" fill="none" xmlns="http://www.w3.org/2000/svg">
<path d="M9.14844 7.67969C9.14844 8.79427 8.96094 9.76823 8.58594 10.6016C8.21094 11.4297 7.67969 12.0625 6.99219 12.5C6.30469 12.9375 5.5026 13.1562 4.58594 13.1562C3.6901 13.1562 2.89583 12.9375 2.20312 12.5C1.51042 12.0573 0.971354 11.4297 0.585938 10.6172C0.205729 9.79948 0.0104167 8.85417 0 7.78125V6.96094C0 5.86719 0.190104 4.90104 0.570312 4.0625C0.950521 3.22396 1.48698 2.58333 2.17969 2.14062C2.8776 1.69271 3.67448 1.46875 4.57031 1.46875C5.48177 1.46875 6.28385 1.6901 6.97656 2.13281C7.67448 2.57031 8.21094 3.20833 8.58594 4.04688C8.96094 4.88021 9.14844 5.85156 9.14844 6.96094V7.67969ZM7.65625 6.94531C7.65625 5.59635 7.38542 4.5625 6.84375 3.84375C6.30208 3.11979 5.54427 2.75781 4.57031 2.75781C3.6224 2.75781 2.875 3.11979 2.32812 3.84375C1.78646 4.5625 1.50781 5.5625 1.49219 6.84375V7.67969C1.49219 8.98698 1.76562 10.0156 2.3125 10.7656C2.86458 11.5104 3.6224 11.8828 4.58594 11.8828C5.55469 11.8828 6.30469 11.5312 6.83594 10.8281C7.36719 10.1198 7.64062 9.10677 7.65625 7.78906V6.94531ZM11.8828 13V5.66406H10.5469V4.54688H11.8828V3.67969C11.8828 2.77344 12.125 2.07292 12.6094 1.57812C13.0938 1.08333 13.7786 0.835938 14.6641 0.835938C14.9974 0.835938 15.3281 0.880208 15.6562 0.96875L15.5781 2.14062C15.3333 2.09375 15.0729 2.07031 14.7969 2.07031C14.3281 2.07031 13.9661 2.20833 13.7109 2.48438C13.4557 2.75521 13.3281 3.14583 13.3281 3.65625V4.54688H15.1328V5.66406H13.3281V13H11.8828ZM17.4453 13V5.66406H16.1094V4.54688H17.4453V3.67969C17.4453 2.77344 17.6875 2.07292 18.1719 1.57812C18.6562 1.08333 19.3411 0.835938 20.2266 0.835938C20.5599 0.835938 20.8906 0.880208 21.2188 0.96875L21.1406 2.14062C20.8958 2.09375 20.6354 2.07031 20.3594 2.07031C19.8906 2.07031 19.5286 2.20833 19.2734 2.48438C19.0182 2.75521 18.8906 3.14583 18.8906 3.65625V4.54688H20.6953V5.66406H18.8906V13H17.4453ZM25.6172 13.1562C24.4714 13.1562 23.5391 12.7812 22.8203 12.0312C22.1016 11.276 21.7422 10.2682 21.7422 9.00781V8.74219C21.7422 7.90365 21.901 7.15625 22.2188 6.5C22.5417 5.83854 22.9896 5.32292 23.5625 4.95312C24.1406 4.57812 24.7656 4.39062 25.4375 4.39062C26.5365 4.39062 27.3906 4.7526 28 5.47656C28.6094 6.20052 28.9141 7.23698 28.9141 8.58594V9.1875H23.1875C23.2083 10.0208 23.4505 10.6953 23.9141 11.2109C24.3828 11.7214 24.9766 11.9766 25.6953 11.9766C26.2057 11.9766 26.638 11.8724 26.9922 11.6641C27.3464 11.4557 27.6562 11.1797 27.9219 10.8359L28.8047 11.5234C28.0964 12.612 27.0339 13.1562 25.6172 13.1562ZM25.4375 5.57812C24.8542 5.57812 24.3646 5.79167 23.9688 6.21875C23.5729 6.64062 23.3281 7.23438 23.2344 8H27.4688V7.89062C27.4271 7.15625 27.2292 6.58854 26.875 6.1875C26.5208 5.78125 26.0417 5.57812 25.4375 5.57812ZM34.6797 5.84375C34.4609 5.80729 34.224 5.78906 33.9688 5.78906C33.0208 5.78906 32.3776 6.19271 32.0391 7V13H30.5938V4.54688H32L32.0234 5.52344C32.4974 4.76823 33.1693 4.39062 34.0391 4.39062C34.3203 4.39062 34.5339 4.42708 34.6797 4.5V5.84375Z" fill="black" fill-opacity="0.5"/>
</svg>
